<mxfile host="app.diagrams.net" agent="Mozilla/5.0 (Macintosh; Intel Mac OS X 10_15_7) AppleWebKit/537.36 (KHTML, like Gecko) Chrome/134.0.0.0 Safari/537.36" version="26.2.4">
  <diagram name="Page-1" id="1pv_7QE-wpkOOIxA0VV8">
    <mxGraphModel dx="1226" dy="1814" grid="1" gridSize="10" guides="1" tooltips="1" connect="1" arrows="1" fold="1" page="1" pageScale="1" pageWidth="850" pageHeight="1100" math="0" shadow="0">
      <root>
        <mxCell id="0" />
        <mxCell id="1" parent="0" />
        <mxCell id="IJOAgbQiG3h4zE9SPtvW-1" value="&lt;div&gt;&lt;br&gt;&lt;/div&gt;Payments + Uploader System Design: Retrospective&lt;div&gt;&lt;br&gt;&lt;/div&gt;" style="text;strokeColor=none;fillColor=none;html=1;fontSize=24;fontStyle=1;verticalAlign=middle;align=center;" vertex="1" parent="1">
          <mxGeometry x="370" width="100" height="40" as="geometry" />
        </mxCell>
        <mxCell id="IJOAgbQiG3h4zE9SPtvW-6" value="Actor" style="shape=umlActor;verticalLabelPosition=bottom;verticalAlign=top;html=1;outlineConnect=0;" vertex="1" parent="1">
          <mxGeometry x="52" y="382" width="30" height="60" as="geometry" />
        </mxCell>
        <mxCell id="IJOAgbQiG3h4zE9SPtvW-12" value="" style="edgeStyle=orthogonalEdgeStyle;rounded=0;orthogonalLoop=1;jettySize=auto;html=1;" edge="1" parent="1" source="IJOAgbQiG3h4zE9SPtvW-7" target="IJOAgbQiG3h4zE9SPtvW-11">
          <mxGeometry relative="1" as="geometry" />
        </mxCell>
        <mxCell id="IJOAgbQiG3h4zE9SPtvW-102" value="" style="edgeStyle=orthogonalEdgeStyle;rounded=0;orthogonalLoop=1;jettySize=auto;html=1;" edge="1" parent="1" source="IJOAgbQiG3h4zE9SPtvW-7" target="IJOAgbQiG3h4zE9SPtvW-84">
          <mxGeometry relative="1" as="geometry" />
        </mxCell>
        <mxCell id="IJOAgbQiG3h4zE9SPtvW-7" value="" style="sketch=0;verticalLabelPosition=bottom;sketch=0;aspect=fixed;html=1;verticalAlign=top;strokeColor=none;fillColor=#000000;align=center;outlineConnect=0;pointerEvents=1;shape=mxgraph.citrix2.citrix_enterprise_browser;" vertex="1" parent="1">
          <mxGeometry x="112" y="399.05" width="50" height="42.955" as="geometry" />
        </mxCell>
        <mxCell id="IJOAgbQiG3h4zE9SPtvW-16" value="" style="edgeStyle=orthogonalEdgeStyle;rounded=0;orthogonalLoop=1;jettySize=auto;html=1;" edge="1" parent="1" source="IJOAgbQiG3h4zE9SPtvW-11" target="IJOAgbQiG3h4zE9SPtvW-15">
          <mxGeometry relative="1" as="geometry" />
        </mxCell>
        <mxCell id="IJOAgbQiG3h4zE9SPtvW-11" value="" style="verticalLabelPosition=bottom;html=1;verticalAlign=top;strokeWidth=1;align=center;outlineConnect=0;dashed=0;outlineConnect=0;shape=mxgraph.aws3d.elasticLoadBalancing;fillColor=#ECECEC;strokeColor=#5E5E5E;aspect=fixed;" vertex="1" parent="1">
          <mxGeometry x="222" y="392" width="41.74" height="40" as="geometry" />
        </mxCell>
        <mxCell id="IJOAgbQiG3h4zE9SPtvW-14" value="Istio" style="sketch=0;html=1;verticalAlign=top;labelPosition=center;verticalLabelPosition=bottom;align=center;spacingTop=-6;fontSize=11;fontStyle=1;fontColor=#999999;shape=image;aspect=fixed;imageAspect=0;image=data:image/svg+xml,PHN2ZyB4bWxucz0iaHR0cDovL3d3dy53My5vcmcvMjAwMC9zdmciIHhtbG5zOnY9Imh0dHBzOi8vdmVjdGEuaW8vbmFubyIgd2lkdGg9IjE2MCIgaGVpZ2h0PSIyNDAiIHZpZXdCb3g9IjAgMCAxNjAgMjQwIj4mI3hhOwk8c3R5bGUgdHlwZT0idGV4dC9jc3MiPiYjeGE7CS5zdDB7ZmlsbDojNDY2YmIwO30mI3hhOwk8L3N0eWxlPiYjeGE7CTxwYXRoIGNsYXNzPSJzdDAiIGQ9Ik02MCAyNDBMMCAyMTBoMTYwem0wLTE2MEwwIDIwMGw2MC0xMHpNNzAgMHYxOTBsOTAgMTB6Ii8+JiN4YTs8L3N2Zz4=;" vertex="1" parent="1">
          <mxGeometry x="322" y="412" width="27" height="42" as="geometry" />
        </mxCell>
        <mxCell id="IJOAgbQiG3h4zE9SPtvW-15" value="ch-vs: mesh" style="text;html=1;align=center;verticalAlign=middle;resizable=0;points=[];autosize=1;strokeColor=none;fillColor=none;" vertex="1" parent="1">
          <mxGeometry x="277" y="370" width="90" height="30" as="geometry" />
        </mxCell>
        <mxCell id="IJOAgbQiG3h4zE9SPtvW-17" value="" style="image;aspect=fixed;html=1;points=[];align=center;fontSize=12;image=img/lib/azure2/other/API_Proxy.svg;" vertex="1" parent="1">
          <mxGeometry x="299" y="492" width="68" height="38" as="geometry" />
        </mxCell>
        <mxCell id="IJOAgbQiG3h4zE9SPtvW-18" value="Kraken" style="text;html=1;align=center;verticalAlign=middle;resizable=0;points=[];autosize=1;strokeColor=none;fillColor=none;" vertex="1" parent="1">
          <mxGeometry x="302" y="470" width="60" height="30" as="geometry" />
        </mxCell>
        <mxCell id="IJOAgbQiG3h4zE9SPtvW-28" value="&lt;div&gt;High Level Architecture&lt;/div&gt;&lt;ul&gt;&lt;li&gt;ELB&lt;/li&gt;&lt;li&gt;API Gateway: rate limiting, SSL termination&lt;/li&gt;&lt;li&gt;CH-virtual-service (Istio + proxy/Kraken + Redis)&lt;/li&gt;&lt;li&gt;microfrontends: Node.js + herokit (server side React) + client side React&lt;/li&gt;&lt;li&gt;API:&amp;nbsp;&lt;/li&gt;&lt;ul&gt;&lt;li&gt;POST /v1/payment/, GET&amp;nbsp;&amp;nbsp;/v1/payments/{:id}&lt;/li&gt;&lt;li&gt;POST /v1/upload, GET /v1/upload/list/{:userid}&lt;/li&gt;&lt;/ul&gt;&lt;/ul&gt;" style="text;strokeColor=none;fillColor=none;html=1;whiteSpace=wrap;verticalAlign=middle;overflow=hidden;" vertex="1" parent="1">
          <mxGeometry x="62" y="70" width="448" height="150" as="geometry" />
        </mxCell>
        <mxCell id="IJOAgbQiG3h4zE9SPtvW-30" value="" style="outlineConnect=0;dashed=0;verticalLabelPosition=bottom;verticalAlign=top;align=center;html=1;shape=mxgraph.aws3.android;fillColor=#8CC64F;gradientColor=none;" vertex="1" parent="1">
          <mxGeometry x="410" y="370" width="50" height="50" as="geometry" />
        </mxCell>
        <mxCell id="IJOAgbQiG3h4zE9SPtvW-33" value="" style="outlineConnect=0;dashed=0;verticalLabelPosition=bottom;verticalAlign=top;align=center;html=1;shape=mxgraph.aws3.android;fillColor=#8CC64F;gradientColor=none;" vertex="1" parent="1">
          <mxGeometry x="410" y="432" width="50" height="50" as="geometry" />
        </mxCell>
        <mxCell id="IJOAgbQiG3h4zE9SPtvW-34" value="" style="outlineConnect=0;dashed=0;verticalLabelPosition=bottom;verticalAlign=top;align=center;html=1;shape=mxgraph.aws3.android;fillColor=#8CC64F;gradientColor=none;" vertex="1" parent="1">
          <mxGeometry x="410" y="500" width="50" height="50" as="geometry" />
        </mxCell>
        <mxCell id="IJOAgbQiG3h4zE9SPtvW-79" value="" style="edgeStyle=orthogonalEdgeStyle;rounded=0;orthogonalLoop=1;jettySize=auto;html=1;" edge="1" parent="1" source="IJOAgbQiG3h4zE9SPtvW-35" target="IJOAgbQiG3h4zE9SPtvW-36">
          <mxGeometry relative="1" as="geometry" />
        </mxCell>
        <mxCell id="IJOAgbQiG3h4zE9SPtvW-80" value="" style="edgeStyle=orthogonalEdgeStyle;rounded=0;orthogonalLoop=1;jettySize=auto;html=1;" edge="1" parent="1" source="IJOAgbQiG3h4zE9SPtvW-35">
          <mxGeometry relative="1" as="geometry">
            <mxPoint x="332" y="530" as="targetPoint" />
          </mxGeometry>
        </mxCell>
        <mxCell id="IJOAgbQiG3h4zE9SPtvW-35" value="" style="outlineConnect=0;dashed=0;verticalLabelPosition=bottom;verticalAlign=top;align=center;html=1;shape=mxgraph.aws3.redis;fillColor=#2E73B8;gradientColor=none;" vertex="1" parent="1">
          <mxGeometry x="289" y="581.5" width="60" height="63" as="geometry" />
        </mxCell>
        <mxCell id="IJOAgbQiG3h4zE9SPtvW-36" value="middleware for: sessions, Authentication&lt;div&gt;(JWT)&lt;/div&gt;" style="text;html=1;align=center;verticalAlign=middle;resizable=0;points=[];autosize=1;strokeColor=none;fillColor=none;" vertex="1" parent="1">
          <mxGeometry x="52" y="581.5" width="240" height="40" as="geometry" />
        </mxCell>
        <mxCell id="IJOAgbQiG3h4zE9SPtvW-37" value="DB write" style="strokeWidth=2;html=1;shape=mxgraph.flowchart.database;whiteSpace=wrap;" vertex="1" parent="1">
          <mxGeometry x="252" y="670" width="60" height="60" as="geometry" />
        </mxCell>
        <mxCell id="IJOAgbQiG3h4zE9SPtvW-38" value="DB read..." style="strokeWidth=2;html=1;shape=mxgraph.flowchart.database;whiteSpace=wrap;" vertex="1" parent="1">
          <mxGeometry x="330" y="670" width="60" height="60" as="geometry" />
        </mxCell>
        <mxCell id="IJOAgbQiG3h4zE9SPtvW-39" value="autoscaling" style="text;html=1;align=center;verticalAlign=middle;resizable=0;points=[];autosize=1;strokeColor=none;fillColor=none;" vertex="1" parent="1">
          <mxGeometry x="300" y="728" width="80" height="30" as="geometry" />
        </mxCell>
        <mxCell id="IJOAgbQiG3h4zE9SPtvW-40" value="Nodejs apps&lt;div&gt;&lt;br&gt;&lt;/div&gt;" style="text;html=1;align=center;verticalAlign=middle;resizable=0;points=[];autosize=1;strokeColor=none;fillColor=none;" vertex="1" parent="1">
          <mxGeometry x="390" y="342" width="90" height="40" as="geometry" />
        </mxCell>
        <mxCell id="IJOAgbQiG3h4zE9SPtvW-43" value="" style="edgeStyle=orthogonalEdgeStyle;rounded=0;orthogonalLoop=1;jettySize=auto;html=1;exitX=0.007;exitY=0.55;exitDx=0;exitDy=0;exitPerimeter=0;" edge="1" parent="1" source="IJOAgbQiG3h4zE9SPtvW-42">
          <mxGeometry relative="1" as="geometry">
            <mxPoint x="438.56" y="581.5" as="sourcePoint" />
            <mxPoint x="370" y="510" as="targetPoint" />
          </mxGeometry>
        </mxCell>
        <mxCell id="IJOAgbQiG3h4zE9SPtvW-42" value="Fragments/Presentation&lt;div&gt;&lt;br&gt;&lt;/div&gt;" style="text;html=1;align=center;verticalAlign=middle;resizable=0;points=[];autosize=1;strokeColor=none;fillColor=none;" vertex="1" parent="1">
          <mxGeometry x="460" y="468" width="150" height="40" as="geometry" />
        </mxCell>
        <mxCell id="IJOAgbQiG3h4zE9SPtvW-88" value="" style="edgeStyle=orthogonalEdgeStyle;rounded=0;orthogonalLoop=1;jettySize=auto;html=1;" edge="1" parent="1" source="IJOAgbQiG3h4zE9SPtvW-45" target="IJOAgbQiG3h4zE9SPtvW-53">
          <mxGeometry relative="1" as="geometry" />
        </mxCell>
        <mxCell id="IJOAgbQiG3h4zE9SPtvW-45" value="" style="points=[];aspect=fixed;html=1;align=center;shadow=0;dashed=0;fillColor=#FF6A00;strokeColor=none;shape=mxgraph.alibaba_cloud.apigateway;" vertex="1" parent="1">
          <mxGeometry x="438.56" y="650" width="41.44" height="40" as="geometry" />
        </mxCell>
        <mxCell id="IJOAgbQiG3h4zE9SPtvW-93" value="" style="edgeStyle=orthogonalEdgeStyle;rounded=0;orthogonalLoop=1;jettySize=auto;html=1;" edge="1" parent="1" source="IJOAgbQiG3h4zE9SPtvW-47" target="IJOAgbQiG3h4zE9SPtvW-49">
          <mxGeometry relative="1" as="geometry" />
        </mxCell>
        <mxCell id="IJOAgbQiG3h4zE9SPtvW-47" value="Payment" style="html=1;whiteSpace=wrap;strokeColor=none;fillColor=#0079D6;labelPosition=center;verticalLabelPosition=middle;verticalAlign=top;align=center;fontSize=12;outlineConnect=0;spacingTop=-6;fontColor=#FFFFFF;sketch=0;shape=mxgraph.sitemap.payment;" vertex="1" parent="1">
          <mxGeometry x="500" y="280" width="120" height="70" as="geometry" />
        </mxCell>
        <mxCell id="IJOAgbQiG3h4zE9SPtvW-49" value="Recurly (subscription management)" style="shape=process;whiteSpace=wrap;html=1;backgroundOutline=1;" vertex="1" parent="1">
          <mxGeometry x="650" y="270" width="120" height="60" as="geometry" />
        </mxCell>
        <mxCell id="IJOAgbQiG3h4zE9SPtvW-92" value="" style="edgeStyle=orthogonalEdgeStyle;rounded=0;orthogonalLoop=1;jettySize=auto;html=1;" edge="1" parent="1" source="IJOAgbQiG3h4zE9SPtvW-50">
          <mxGeometry relative="1" as="geometry">
            <mxPoint x="750" y="620" as="targetPoint" />
          </mxGeometry>
        </mxCell>
        <mxCell id="IJOAgbQiG3h4zE9SPtvW-50" value="Braze" style="shape=process;whiteSpace=wrap;html=1;backgroundOutline=1;" vertex="1" parent="1">
          <mxGeometry x="650" y="360" width="120" height="60" as="geometry" />
        </mxCell>
        <mxCell id="IJOAgbQiG3h4zE9SPtvW-51" value="" style="endArrow=classic;startArrow=classic;html=1;rounded=0;entryX=0.638;entryY=-0.1;entryDx=0;entryDy=0;entryPerimeter=0;" edge="1" parent="1" target="IJOAgbQiG3h4zE9SPtvW-45">
          <mxGeometry width="50" height="50" relative="1" as="geometry">
            <mxPoint x="350" y="540" as="sourcePoint" />
            <mxPoint x="450" y="570" as="targetPoint" />
          </mxGeometry>
        </mxCell>
        <mxCell id="IJOAgbQiG3h4zE9SPtvW-90" value="" style="edgeStyle=orthogonalEdgeStyle;rounded=0;orthogonalLoop=1;jettySize=auto;html=1;" edge="1" parent="1" source="IJOAgbQiG3h4zE9SPtvW-52" target="IJOAgbQiG3h4zE9SPtvW-67">
          <mxGeometry relative="1" as="geometry" />
        </mxCell>
        <mxCell id="IJOAgbQiG3h4zE9SPtvW-52" value="API Gateways&lt;div&gt;&lt;br&gt;&lt;/div&gt;" style="text;html=1;align=center;verticalAlign=middle;resizable=0;points=[];autosize=1;strokeColor=none;fillColor=none;" vertex="1" parent="1">
          <mxGeometry x="409.28" y="688" width="100" height="40" as="geometry" />
        </mxCell>
        <mxCell id="IJOAgbQiG3h4zE9SPtvW-53" value="DocProcessing" style="shape=process;whiteSpace=wrap;html=1;backgroundOutline=1;" vertex="1" parent="1">
          <mxGeometry x="540" y="640" width="120" height="60" as="geometry" />
        </mxCell>
        <mxCell id="IJOAgbQiG3h4zE9SPtvW-54" value="SQS" style="outlineConnect=0;dashed=0;verticalLabelPosition=bottom;verticalAlign=top;align=center;html=1;shape=mxgraph.aws3.sqs;fillColor=#D9A741;gradientColor=none;" vertex="1" parent="1">
          <mxGeometry x="720" y="633" width="76.5" height="93" as="geometry" />
        </mxCell>
        <mxCell id="IJOAgbQiG3h4zE9SPtvW-57" value="Checker Service (copyrights, dups...)" style="shape=process;whiteSpace=wrap;html=1;backgroundOutline=1;" vertex="1" parent="1">
          <mxGeometry x="540" y="726" width="120" height="60" as="geometry" />
        </mxCell>
        <mxCell id="IJOAgbQiG3h4zE9SPtvW-58" value="" style="endArrow=classic;startArrow=classic;html=1;rounded=0;entryX=1;entryY=0.5;entryDx=0;entryDy=0;" edge="1" parent="1" target="IJOAgbQiG3h4zE9SPtvW-53">
          <mxGeometry width="50" height="50" relative="1" as="geometry">
            <mxPoint x="710" y="670" as="sourcePoint" />
            <mxPoint x="450" y="610" as="targetPoint" />
            <Array as="points">
              <mxPoint x="680" y="670" />
            </Array>
          </mxGeometry>
        </mxCell>
        <mxCell id="IJOAgbQiG3h4zE9SPtvW-59" value="" style="endArrow=classic;startArrow=classic;html=1;rounded=0;" edge="1" parent="1">
          <mxGeometry width="50" height="50" relative="1" as="geometry">
            <mxPoint x="660" y="758" as="sourcePoint" />
            <mxPoint x="710" y="708" as="targetPoint" />
          </mxGeometry>
        </mxCell>
        <mxCell id="IJOAgbQiG3h4zE9SPtvW-60" value="Tag Extraction" style="shape=process;whiteSpace=wrap;html=1;backgroundOutline=1;" vertex="1" parent="1">
          <mxGeometry x="540" y="800" width="120" height="60" as="geometry" />
        </mxCell>
        <mxCell id="IJOAgbQiG3h4zE9SPtvW-61" value="Relevant resources" style="shape=process;whiteSpace=wrap;html=1;backgroundOutline=1;" vertex="1" parent="1">
          <mxGeometry x="540" y="870" width="120" height="60" as="geometry" />
        </mxCell>
        <mxCell id="IJOAgbQiG3h4zE9SPtvW-62" value="" style="endArrow=classic;startArrow=classic;html=1;rounded=0;" edge="1" parent="1" target="IJOAgbQiG3h4zE9SPtvW-54">
          <mxGeometry width="50" height="50" relative="1" as="geometry">
            <mxPoint x="660" y="836" as="sourcePoint" />
            <mxPoint x="710" y="786" as="targetPoint" />
            <Array as="points" />
          </mxGeometry>
        </mxCell>
        <mxCell id="IJOAgbQiG3h4zE9SPtvW-63" value="" style="endArrow=classic;startArrow=classic;html=1;rounded=0;" edge="1" parent="1" target="IJOAgbQiG3h4zE9SPtvW-54">
          <mxGeometry width="50" height="50" relative="1" as="geometry">
            <mxPoint x="660" y="900" as="sourcePoint" />
            <mxPoint x="770" y="750" as="targetPoint" />
          </mxGeometry>
        </mxCell>
        <mxCell id="IJOAgbQiG3h4zE9SPtvW-89" value="" style="edgeStyle=orthogonalEdgeStyle;rounded=0;orthogonalLoop=1;jettySize=auto;html=1;" edge="1" parent="1" source="IJOAgbQiG3h4zE9SPtvW-64" target="IJOAgbQiG3h4zE9SPtvW-66">
          <mxGeometry relative="1" as="geometry">
            <Array as="points">
              <mxPoint x="450" y="1040" />
            </Array>
          </mxGeometry>
        </mxCell>
        <mxCell id="IJOAgbQiG3h4zE9SPtvW-64" value="Publisher" style="shape=process;whiteSpace=wrap;html=1;backgroundOutline=1;" vertex="1" parent="1">
          <mxGeometry x="540" y="1010" width="120" height="60" as="geometry" />
        </mxCell>
        <mxCell id="IJOAgbQiG3h4zE9SPtvW-65" value="" style="endArrow=classic;startArrow=classic;html=1;rounded=0;exitX=1.025;exitY=0.383;exitDx=0;exitDy=0;exitPerimeter=0;" edge="1" parent="1" source="IJOAgbQiG3h4zE9SPtvW-64" target="IJOAgbQiG3h4zE9SPtvW-54">
          <mxGeometry width="50" height="50" relative="1" as="geometry">
            <mxPoint x="733.25" y="970" as="sourcePoint" />
            <mxPoint x="790" y="740" as="targetPoint" />
          </mxGeometry>
        </mxCell>
        <mxCell id="IJOAgbQiG3h4zE9SPtvW-99" value="" style="edgeStyle=orthogonalEdgeStyle;rounded=0;orthogonalLoop=1;jettySize=auto;html=1;" edge="1" parent="1" source="IJOAgbQiG3h4zE9SPtvW-66" target="IJOAgbQiG3h4zE9SPtvW-67">
          <mxGeometry relative="1" as="geometry" />
        </mxCell>
        <mxCell id="IJOAgbQiG3h4zE9SPtvW-66" value="S3&lt;div&gt;&lt;br&gt;&lt;/div&gt;" style="outlineConnect=0;dashed=0;verticalLabelPosition=bottom;verticalAlign=top;align=center;html=1;shape=mxgraph.aws3.s3;fillColor=#E05243;gradientColor=none;" vertex="1" parent="1">
          <mxGeometry x="381.75" y="907" width="76.5" height="93" as="geometry" />
        </mxCell>
        <mxCell id="IJOAgbQiG3h4zE9SPtvW-67" value="FileSystem" style="shape=process;whiteSpace=wrap;html=1;backgroundOutline=1;" vertex="1" parent="1">
          <mxGeometry x="362" y="820" width="120" height="60" as="geometry" />
        </mxCell>
        <mxCell id="IJOAgbQiG3h4zE9SPtvW-68" value="EFS" style="outlineConnect=0;dashed=0;verticalLabelPosition=bottom;verticalAlign=top;align=center;html=1;shape=mxgraph.aws3.efs;fillColor=#E05243;gradientColor=none;" vertex="1" parent="1">
          <mxGeometry x="263.74" y="907" width="76.5" height="93" as="geometry" />
        </mxCell>
        <mxCell id="IJOAgbQiG3h4zE9SPtvW-69" value="" style="endArrow=classic;startArrow=classic;html=1;rounded=0;" edge="1" parent="1">
          <mxGeometry width="50" height="50" relative="1" as="geometry">
            <mxPoint x="307" y="900" as="sourcePoint" />
            <mxPoint x="357" y="850" as="targetPoint" />
          </mxGeometry>
        </mxCell>
        <mxCell id="IJOAgbQiG3h4zE9SPtvW-70" value="most popular docs" style="edgeLabel;html=1;align=center;verticalAlign=middle;resizable=0;points=[];" vertex="1" connectable="0" parent="IJOAgbQiG3h4zE9SPtvW-69">
          <mxGeometry x="0.02" y="1" relative="1" as="geometry">
            <mxPoint as="offset" />
          </mxGeometry>
        </mxCell>
        <mxCell id="IJOAgbQiG3h4zE9SPtvW-71" value="" style="endArrow=classic;startArrow=classic;html=1;rounded=0;exitX=1;exitY=0.25;exitDx=0;exitDy=0;exitPerimeter=0;" edge="1" parent="1" source="IJOAgbQiG3h4zE9SPtvW-33" target="IJOAgbQiG3h4zE9SPtvW-47">
          <mxGeometry width="50" height="50" relative="1" as="geometry">
            <mxPoint x="525" y="410" as="sourcePoint" />
            <mxPoint x="575" y="360" as="targetPoint" />
          </mxGeometry>
        </mxCell>
        <mxCell id="IJOAgbQiG3h4zE9SPtvW-72" value="" style="endArrow=classic;startArrow=classic;html=1;rounded=0;entryX=0.342;entryY=-0.033;entryDx=0;entryDy=0;entryPerimeter=0;" edge="1" parent="1" target="IJOAgbQiG3h4zE9SPtvW-53">
          <mxGeometry width="50" height="50" relative="1" as="geometry">
            <mxPoint x="460" y="532" as="sourcePoint" />
            <mxPoint x="510" y="482" as="targetPoint" />
          </mxGeometry>
        </mxCell>
        <mxCell id="IJOAgbQiG3h4zE9SPtvW-73" value="Uploader" style="text;html=1;align=center;verticalAlign=middle;resizable=0;points=[];autosize=1;strokeColor=none;fillColor=none;" vertex="1" parent="1">
          <mxGeometry x="458.25" y="500" width="70" height="30" as="geometry" />
        </mxCell>
        <mxCell id="IJOAgbQiG3h4zE9SPtvW-101" style="edgeStyle=orthogonalEdgeStyle;rounded=0;orthogonalLoop=1;jettySize=auto;html=1;exitX=0;exitY=0.5;exitDx=0;exitDy=0;exitPerimeter=0;entryX=1.056;entryY=0.333;entryDx=0;entryDy=0;entryPerimeter=0;" edge="1" parent="1" source="IJOAgbQiG3h4zE9SPtvW-75" target="IJOAgbQiG3h4zE9SPtvW-84">
          <mxGeometry relative="1" as="geometry">
            <mxPoint x="150" y="450" as="targetPoint" />
            <Array as="points">
              <mxPoint x="165" y="489" />
              <mxPoint x="165" y="464" />
            </Array>
          </mxGeometry>
        </mxCell>
        <mxCell id="IJOAgbQiG3h4zE9SPtvW-75" value="" style="outlineConnect=0;dashed=0;verticalLabelPosition=bottom;verticalAlign=top;align=center;html=1;shape=mxgraph.aws3.cloudfront;fillColor=#F58536;gradientColor=none;" vertex="1" parent="1">
          <mxGeometry x="200.5" y="442.01" width="76.5" height="93" as="geometry" />
        </mxCell>
        <mxCell id="IJOAgbQiG3h4zE9SPtvW-76" value="CDN" style="text;html=1;align=center;verticalAlign=middle;resizable=0;points=[];autosize=1;strokeColor=none;fillColor=none;" vertex="1" parent="1">
          <mxGeometry x="145" y="468" width="50" height="30" as="geometry" />
        </mxCell>
        <mxCell id="IJOAgbQiG3h4zE9SPtvW-81" value="Payment" style="text;html=1;align=center;verticalAlign=middle;resizable=0;points=[];autosize=1;strokeColor=none;fillColor=none;" vertex="1" parent="1">
          <mxGeometry x="458.25" y="432" width="70" height="30" as="geometry" />
        </mxCell>
        <mxCell id="IJOAgbQiG3h4zE9SPtvW-84" value="" style="html=1;verticalLabelPosition=bottom;align=center;labelBackgroundColor=#ffffff;verticalAlign=top;strokeWidth=2;strokeColor=#0080F0;shadow=0;dashed=0;shape=mxgraph.ios7.icons.smartphone;" vertex="1" parent="1">
          <mxGeometry x="112" y="454" width="18" height="30" as="geometry" />
        </mxCell>
        <mxCell id="IJOAgbQiG3h4zE9SPtvW-85" value="x" style="points=[];aspect=fixed;html=1;align=center;shadow=0;dashed=0;fillColor=#FF6A00;strokeColor=none;shape=mxgraph.alibaba_cloud.nlp-automl;" vertex="1" parent="1">
          <mxGeometry x="721.7" y="870" width="48.300000000000004" height="47.1" as="geometry" />
        </mxCell>
        <mxCell id="IJOAgbQiG3h4zE9SPtvW-86" value="ML" style="text;html=1;align=center;verticalAlign=middle;resizable=0;points=[];autosize=1;strokeColor=none;fillColor=none;" vertex="1" parent="1">
          <mxGeometry x="720" y="850" width="40" height="30" as="geometry" />
        </mxCell>
        <mxCell id="IJOAgbQiG3h4zE9SPtvW-87" value="Load Balancers" style="text;html=1;align=center;verticalAlign=middle;resizable=0;points=[];autosize=1;strokeColor=none;fillColor=none;" vertex="1" parent="1">
          <mxGeometry x="182" y="340" width="110" height="30" as="geometry" />
        </mxCell>
        <mxCell id="IJOAgbQiG3h4zE9SPtvW-94" value="Braintree (Payment Gateway)" style="text;html=1;align=center;verticalAlign=middle;resizable=0;points=[];autosize=1;strokeColor=none;fillColor=none;" vertex="1" parent="1">
          <mxGeometry x="450" y="248" width="180" height="30" as="geometry" />
        </mxCell>
        <mxCell id="IJOAgbQiG3h4zE9SPtvW-95" value="metadata" style="text;html=1;align=center;verticalAlign=middle;resizable=0;points=[];autosize=1;strokeColor=none;fillColor=none;" vertex="1" parent="1">
          <mxGeometry x="170" y="685" width="70" height="30" as="geometry" />
        </mxCell>
        <mxCell id="IJOAgbQiG3h4zE9SPtvW-96" value="Splitter" style="shape=process;whiteSpace=wrap;html=1;backgroundOutline=1;" vertex="1" parent="1">
          <mxGeometry x="540" y="940" width="120" height="60" as="geometry" />
        </mxCell>
        <mxCell id="IJOAgbQiG3h4zE9SPtvW-97" value="" style="verticalLabelPosition=bottom;sketch=0;html=1;fillColor=#A153A0;strokeColor=#ffffff;verticalAlign=top;align=center;points=[[0,0.5,0],[0.125,0.25,0],[0.25,0,0],[0.5,0,0],[0.75,0,0],[0.875,0.25,0],[1,0.5,0],[0.875,0.75,0],[0.75,1,0],[0.5,1,0],[0.125,0.75,0]];pointerEvents=1;shape=mxgraph.cisco_safe.compositeIcon;bgIcon=mxgraph.cisco_safe.design.blank_device;resIcon=mxgraph.cisco_safe.design.monitoring;" vertex="1" parent="1">
          <mxGeometry x="80" y="820" width="50" height="45" as="geometry" />
        </mxCell>
        <mxCell id="IJOAgbQiG3h4zE9SPtvW-98" value="Monitoring:&lt;div&gt;New Relic, Rollbar, DataDog,&amp;nbsp;&lt;/div&gt;&lt;div&gt;Amplitude&lt;/div&gt;&lt;div&gt;&lt;br&gt;&lt;/div&gt;" style="text;html=1;align=center;verticalAlign=middle;resizable=0;points=[];autosize=1;strokeColor=none;fillColor=none;" vertex="1" parent="1">
          <mxGeometry x="10" y="758" width="180" height="70" as="geometry" />
        </mxCell>
      </root>
    </mxGraphModel>
  </diagram>
</mxfile>
